HIERARCHY
ROOT root
{
	OFFSET	0	13.1	24.9
	CHANNELS 6  Xposition Yposition Zposition Xrotation Yrotation Zrotation
	JOINT spine_1
	{
		OFFSET	0	9.99999	0
		CHANNELS 3  Xrotation Yrotation Zrotation
		JOINT spine_2
		{
			OFFSET	0	112	-10
			CHANNELS 3  Xrotation Yrotation Zrotation
			JOINT spine_3
			{
				OFFSET	0	206.5	19.3
				CHANNELS 3  Xrotation Yrotation Zrotation
				JOINT spine_4
				{
					OFFSET	0	110.4	14.6
					CHANNELS 3  Xrotation Yrotation Zrotation
					JOINT neck_1
					{
						OFFSET	0	71.8	-50.3
						CHANNELS 3  Xrotation Yrotation Zrotation
						JOINT neck_2
						{
							OFFSET	0	86.2	-25.8
							CHANNELS 3  Xrotation Yrotation Zrotation
							JOINT head_ee
							{
								OFFSET	0	179.8	-8.7
								CHANNELS 3  Xrotation Yrotation Zrotation
								End Site
								{
									OFFSET	1	0	0
								}
							}
						}
					}
					JOINT left_clavicle
					{
						OFFSET	-43.2	22.4	-70.8
						CHANNELS 3  Xrotation Yrotation Zrotation
						JOINT left_shoulder
						{
							OFFSET	-93.9	-5.79999	48.7
							CHANNELS 3  Xrotation Yrotation Zrotation
							JOINT left_elbow
							{
								OFFSET	-291.4	-30.8	15.2
								CHANNELS 3  Xrotation Yrotation Zrotation
								JOINT left_lowarm_twist
								{
									OFFSET	-110.7	-3.89999	13.6
									CHANNELS 3  Xrotation Yrotation Zrotation
									JOINT left_hand
									{
										OFFSET	-110.7	-3.89999	13.6
										CHANNELS 3  Xrotation Yrotation Zrotation
										JOINT left_ee
										{
											OFFSET	-80.8	-5.10001	12.1
											CHANNELS 3  Xrotation Yrotation Zrotation
											End Site
											{
												OFFSET	1	0	0
											}
										}
									}
								}
							}
						}
					}
					JOINT right_clavicle
					{
						OFFSET	43.2	22.4	-70.8
						CHANNELS 3  Xrotation Yrotation Zrotation
						JOINT right_shoulder
						{
							OFFSET	93.9	-5.79999	48.7
							CHANNELS 3  Xrotation Yrotation Zrotation
							JOINT right_elbow
							{
								OFFSET	291.4	-30.8	15.2
								CHANNELS 3  Xrotation Yrotation Zrotation
								JOINT right_lowarm_twist
								{
									OFFSET	110.7	-3.89999	13.6
									CHANNELS 3  Xrotation Yrotation Zrotation
									JOINT right_hand
									{
										OFFSET	110.7	-3.89999	13.6
										CHANNELS 3  Xrotation Yrotation Zrotation
										JOINT right_ee
										{
											OFFSET	80.8	-5.10001	12.1
											CHANNELS 3  Xrotation Yrotation Zrotation
											End Site
											{
												OFFSET	1	0	0
											}
										}
									}
								}
							}
						}
					}
				}
			}
		}
	}
	JOINT left_hip
	{
		OFFSET	-82.8	-127.5	0.300001
		CHANNELS 3  Xrotation Yrotation Zrotation
		JOINT left_knee
		{
			OFFSET	-28.2	-396.7	2.2
			CHANNELS 3  Xrotation Yrotation Zrotation
			JOINT left_ankle
			{
				OFFSET	-11.7	-411.3	35.4
				CHANNELS 3  Xrotation Yrotation Zrotation
				JOINT left_toes
				{
					OFFSET	0	-60	-88.6
					CHANNELS 3  Xrotation Yrotation Zrotation
					JOINT left_foot_ee
					{
						OFFSET	-22.5	-16.5	-42.2
						CHANNELS 3  Xrotation Yrotation Zrotation
						End Site
						{
							OFFSET	1	0	0
						}
					}
				}
			}
		}
	}
	JOINT right_hip
	{
		OFFSET	82.8	-127.5	0.300001
		CHANNELS 3  Xrotation Yrotation Zrotation
		JOINT right_knee
		{
			OFFSET	28.2	-396.7	2.2
			CHANNELS 3  Xrotation Yrotation Zrotation
			JOINT right_ankle
			{
				OFFSET	11.7	-411.3	35.4
				CHANNELS 3  Xrotation Yrotation Zrotation
				JOINT right_toes
				{
					OFFSET	0	-60	-88.6
					CHANNELS 3  Xrotation Yrotation Zrotation
					JOINT right_foot_ee
					{
						OFFSET	22.5	-16.5	-42.2
						CHANNELS 3  Xrotation Yrotation Zrotation
						End Site
						{
							OFFSET	1	0	0
						}
					}
				}
			}
		}
	}
}
MOTION
Frames: 8
Frame Time: 0.02
2944.01058907 690.339 -1974.77068748 -18.5351734747 14.7568987975 7.22971489476 7.7386 -0.0269564 0.174005 7.73862 -0.0379741 0.171937 7.73848 -0.0510362 0.168522 7.73844 -0.0237808 0.174468 -15.4917 0.31064 0.030678 -15.492 0.57678 0.134162 -0.0 0.0 -0.0 6.18149 5.15348 11.9946 -13.753 -20.1658 60.6287 1.41476 -35.0219 0.446389 51.7821 -1.09932 -6.30053 0.276358 -14.1291 -4.15063 -0.0 0.0 -0.0 8.7064 10.1408 -17.0238 88.5658 -67.7978 24.1428 0.178371 5.04965 -0.00786531 84.1296 4.32261 8.82521 -0.50612 -9.84061 -0.830508 0.0 0.0 0.0 29.4544 16.8575 0.572033 -11.0194 0.294565 1.66285 40.7942 10.2317 -4.94735 14.9101 -0.0 -0.0 -0.0 0.0 -0.0 39.8764 19.9844 -5.21447 -55.5695 1.74104 -8.01955 11.763 -7.13998 1.66166 6.21808 -0.0 -0.0 0.0 0.0 0.0 
2931.03551409 692.791 -1984.35717163 -18.3652333742 17.6278666551 7.26759257076 7.66649 0.0478413 0.402389 7.66658 0.0221395 0.404618 7.66659 -0.00943498 0.405113 7.66636 0.054663 0.40152 -16.9318 0.823678 1.69782 -16.924 0.628668 1.88989 -0.0 0.0 -0.0 5.8526 3.86071 11.375 -7.89171 -19.7515 61.8363 1.32008 -33.1802 0.393301 53.7981 -1.25394 -6.50735 0.719438 -22.9641 -5.01057 -0.0 0.0 -0.0 9.42799 11.571 -18.5518 88.6584 -69.2256 27.5458 0.193224 5.46768 -0.00922664 84.8018 4.40281 8.85695 0.80118 -6.01631 -7.77464 0.0 0.0 0.0 26.0277 17.4661 1.01303 -7.94752 0.244718 1.19418 38.3859 4.58886 -4.71555 16.2741 -0.0 -0.0 -0.0 0.0 -0.0 44.7122 17.3047 -6.48086 -53.1307 1.50562 -7.72658 7.7513 -10.2655 1.11091 2.27139 -0.0 -0.0 0.0 0.0 0.0 
2907.98040072 694.103 -1988.11770601 -18.3918268602 19.6894030269 8.14326140694 7.43185 0.0257089 0.522401 7.432 -0.00758442 0.522978 7.4317 -0.0504213 0.520597 7.43133 0.0324289 0.522027 -16.153 -0.409414 2.29942 -16.1427 -2.10634 2.01798 -0.0 0.0 -0.0 5.63702 2.92177 10.9568 -5.22201 -20.0221 59.8019 1.42608 -35.2368 0.452904 54.7882 -1.33252 -6.60692 1.06528 -21.2367 -1.97703 -0.0 0.0 -0.0 10.1298 11.0767 -20.1014 86.0672 -68.3364 26.7779 0.194956 5.5164 -0.00939244 83.7859 4.28175 8.80861 0.711683 -5.4444 -6.95761 0.0 0.0 0.0 24.0837 17.1794 -0.0538271 -6.79962 0.219652 1.01981 39.9445 3.41161 -4.85478 13.759 -0.0 -0.0 -0.0 0.0 -0.0 47.5789 19.6289 -8.97575 -55.5092 1.73507 -8.01243 7.03121 -10.3234 1.01002 -0.6464 0.0 0.0 0.0 0.0 0.0 
2898.06861551 694.103 -1979.482742 -18.606553945 21.4016516413 8.7550305371 7.43185 0.0257089 0.522401 7.432 -0.00758442 0.522978 7.4317 -0.0504213 0.520597 7.43133 0.0324289 0.522027 -16.153 -0.409414 2.29942 -16.1427 -2.10634 2.01798 -0.0 0.0 -0.0 5.63702 2.92177 10.9568 -5.22201 -20.0221 59.8019 1.42608 -35.2368 0.452904 54.7882 -1.33252 -6.60692 1.06528 -21.2367 -1.97703 -0.0 0.0 -0.0 10.1298 11.0767 -20.1014 86.0672 -68.3364 26.7779 0.194956 5.5164 -0.00939244 83.7859 4.28175 8.80861 0.711683 -5.4444 -6.95761 0.0 0.0 0.0 24.0837 17.1794 -0.0538271 -6.79962 0.219652 1.01981 39.9445 3.41161 -4.85478 13.759 -0.0 -0.0 -0.0 0.0 -0.0 47.5789 19.6289 -8.97575 -55.5092 1.73507 -8.01243 7.03121 -10.3234 1.01002 -0.6464 0.0 0.0 0.0 0.0 0.0 
2811.31982823 697.451 -2011.98497 -19.7948424557 23.9274305497 9.6624450443 7.24223 0.116622 0.445336 7.24234 0.0880484 0.451854 7.24287 0.0492139 0.457715 7.2426 0.120883 0.444198 -14.269 5.9068 -1.8391 -14.3807 12.3887 0.154759 -0.0 0.0 -0.0 5.87929 -0.0567876 11.3798 1.12518 -19.7329 57.58 1.75043 -40.9252 0.6532 57.4019 -1.54816 -6.86315 1.43442 -22.2048 0.0151824 -0.0 0.0 -0.0 11.0112 4.15966 -21.9705 60.1802 -62.5025 7.88534 0.215103 6.0824 -0.0114282 83.0894 4.19925 8.77424 0.931666 8.85325 -2.5316 0.0 0.0 0.0 14.112 30.7906 5.01801 1.98937 -0.0870187 -0.292847 35.3959 -8.93231 -4.58072 15.877 -0.0 -0.0 -0.0 0.0 -0.0 58.9934 19.4679 -12.1906 -48.1457 1.06454 -7.09846 -3.73853 -27.0224 -0.581564 -9.85562 0.0 0.0 0.0 0.0 0.0 
2782.26291903 694.728 -2015.3805783 -19.5234359264 26.0848620929 9.75612712002 7.22589 0.194462 0.60105 7.22608 0.155822 0.612206 7.22745 0.10291 0.623286 7.22696 0.200053 0.599213 -15.4701 6.37827 -1.90377 -15.6256 13.3243 0.391843 -0.0 0.0 -0.0 5.30903 0.457279 10.2763 4.02258 -17.5388 59.9428 1.76206 -41.1131 0.660833 59.7609 -1.75269 -7.08583 2.33205 -28.1276 3.01847 -0.0 0.0 -0.0 10.6425 3.75427 -21.1633 62.6177 -62.4396 10.9748 0.186206 5.27025 -0.00856993 80.5736 3.90484 8.64177 1.09634 12.2322 -2.18866 0.0 0.0 0.0 10.2225 32.4612 6.69084 2.87175 -0.128867 -0.421758 32.2362 -10.5735 -4.29742 20.1676 -0.0 -0.0 -0.0 0.0 -0.0 59.393 19.978 -11.9328 -41.3227 0.553053 -6.18244 -4.23533 -28.6594 -0.666058 -13.8366 0.0 0.0 0.0 0.0 0.0 
2755.34647129 690.506 -2025.74992362 -19.3766627749 27.6842457997 9.11425148986 7.30623 0.223959 0.688841 7.30648 0.179673 0.701695 7.30829 0.120034 0.714318 7.30765 0.231338 0.686398 -15.985 8.4337 -1.09128 -16.2653 16.7916 1.96473 -0.0 0.0 -0.0 5.25196 -0.770175 10.1294 4.53324 -14.6836 59.5749 1.88152 -42.9814 0.740854 62.4072 -1.99286 -7.32546 1.95054 -24.6985 2.22558 -0.0 0.0 -0.0 10.9541 -1.62887 -21.5279 47.8587 -58.6992 -1.58652 0.181268 5.13124 -0.00812234 77.9431 3.60351 8.4896 1.34582 18.3507 -1.16637 0.0 0.0 0.0 8.00045 32.3438 7.39173 0.588744 -0.0246909 -0.0869723 33.3103 -11.3245 -4.42561 20.4619 -0.0 -0.0 -0.0 0.0 -0.0 58.7981 19.6775 -11.0849 -34.0933 0.134357 -5.15408 -14.446 -28.451 -2.29933 -14.859 0.0 0.0 0.0 0.0 0.0 
2756.75303058 690.506 -2027.40718247 -19.3376144305 27.4714369919 9.0299054574 7.30623 0.223959 0.688841 7.30648 0.179673 0.701695 7.30829 0.120034 0.714318 7.30765 0.231338 0.686398 -15.985 8.4337 -1.09128 -16.2653 16.7916 1.96473 -0.0 0.0 -0.0 5.25196 -0.770175 10.1294 4.53324 -14.6836 59.5749 1.88152 -42.9814 0.740854 62.4072 -1.99286 -7.32546 1.95054 -24.6985 2.22558 -0.0 0.0 -0.0 10.9541 -1.62887 -21.5279 47.8587 -58.6992 -1.58652 0.181268 5.13124 -0.00812234 77.9431 3.60351 8.4896 1.34582 18.3507 -1.16637 0.0 0.0 0.0 8.00045 32.3438 7.39173 0.588744 -0.0246909 -0.0869723 33.3103 -11.3245 -4.42561 20.4619 -0.0 -0.0 -0.0 0.0 -0.0 58.7981 19.6775 -11.0849 -34.0933 0.134357 -5.15408 -14.446 -28.451 -2.29933 -14.859 0.0 0.0 0.0 0.0 0.0 
